<svg width="203" height="124" viewBox="0 0 203 124" fill="none" xmlns="http://www.w3.org/2000/svg">
    <path d="M93.0037 106.511C88.9144 112.368 83.1949 116.761 75.8452 119.69C68.5508 122.563 60.0407 124 50.3148 124C40.4784 124 31.7472 121.707 24.1213 117.12C16.4953 112.479 10.5824 105.903 6.38261 97.393C2.23806 88.8832 0.110521 79.0196 0 67.8021V57.2754C0 39.0954 4.22744 25.0045 12.6823 15.0027C21.1925 5.00089 33.1288 0 48.4912 0C61.0906 0 71.231 3.23262 78.9122 9.69786C86.5934 16.1078 91.2906 25.2255 93.0037 37.0508H77.0886C74.1045 21.0811 64.5997 13.0963 48.5741 13.0963C37.9088 13.0963 29.8131 16.8538 24.2871 24.369C18.8163 31.8289 16.0532 42.6595 15.998 56.861V66.7246C15.998 80.2629 19.0926 91.0383 25.2817 99.0508C31.4709 107.008 39.8429 110.987 50.3977 110.987C56.3659 110.987 61.588 110.324 66.0641 108.997C70.5402 107.671 74.2427 105.433 77.1715 102.283V75.1791H49.2372V62.2487H93.0037V106.511Z" fill="#50B08E"/>
    <path d="M203 14.754H164.207V122.342H148.375V14.754H109.665V1.65775H203V14.754Z" fill="#50B08E"/>
    </svg>
